<svg width="228" height="53" viewBox="0 0 228 53" fill="none" xmlns="http://www.w3.org/2000/svg">
<path d="M59.2314 48L55.1592 29.7627H54.998C55.1836 31.1689 55.2764 32.458 55.2764 33.6299V48H51.585V26.584H57.708L61.3701 43.415H61.4873L65.1201 26.584H71.3311V48H67.5518V33.4834C67.5518 32.2822 67.6201 31.0518 67.7568 29.792H67.6396L63.582 48H59.2314ZM84.7637 48H75.1104V26.584H84.7637V30.0264H79.0947V35.124H84.3535V38.5811H79.0947V44.5137H84.7637V48ZM94.3584 36.1201H100.906V47.1064C99.0508 47.8975 97.0781 48.293 94.9883 48.293C92.498 48.293 90.5791 47.3457 89.2314 45.4512C87.8936 43.5566 87.2246 40.8271 87.2246 37.2627C87.2246 33.8252 87.9912 31.1348 89.5244 29.1914C91.0674 27.248 93.2207 26.2764 95.9844 26.2764C97.6934 26.2764 99.3242 26.7158 100.877 27.5947L99.6172 30.8467C98.4062 30.1436 97.2734 29.792 96.2188 29.792C94.7051 29.792 93.5039 30.4707 92.6152 31.8281C91.7363 33.1758 91.2969 35.0166 91.2969 37.3506C91.2969 39.7529 91.6143 41.5938 92.249 42.873C92.8936 44.1523 93.8262 44.792 95.0469 44.792C95.6914 44.792 96.3457 44.709 97.0098 44.543V39.6357H94.3584V36.1201ZM114.31 48L113.079 42.5947H107.498L106.268 48H102.283L107.586 26.4961H112.991L118.309 48H114.31ZM112.332 39.0645L111.189 34.084C111.121 33.7812 110.965 33.0244 110.721 31.8135C110.486 30.5928 110.345 29.7773 110.296 29.3672C110.169 30.207 110.008 31.1348 109.812 32.1504C109.617 33.1562 109.109 35.4609 108.289 39.0645H112.332ZM131.595 39.665V48H127.61V26.584H132.825C135.032 26.584 136.658 27.1064 137.703 28.1514C138.758 29.1963 139.285 30.793 139.285 32.9414C139.285 35.6465 138.372 37.5361 136.546 38.6104L140.662 48H136.399L133.016 39.665H131.595ZM131.595 36.2373H132.62C133.558 36.2373 134.231 35.9736 134.642 35.4463C135.052 34.9092 135.257 34.1133 135.257 33.0586C135.257 31.9648 135.037 31.1885 134.598 30.7295C134.168 30.2607 133.499 30.0264 132.591 30.0264H131.595V36.2373ZM152.747 48L151.517 42.5947H145.936L144.705 48H140.721L146.023 26.4961H151.429L156.746 48H152.747ZM150.77 39.0645L149.627 34.084C149.559 33.7812 149.402 33.0244 149.158 31.8135C148.924 30.5928 148.782 29.7773 148.733 29.3672C148.606 30.207 148.445 31.1348 148.25 32.1504C148.055 33.1562 147.547 35.4609 146.727 39.0645H150.77ZM173.636 48H168.772L162.151 32.4873H161.961C162.205 33.6689 162.327 34.9385 162.327 36.2959V48H158.636V26.584H163.528L170.091 41.9355H170.252C170.066 40.9102 169.974 39.6895 169.974 38.2734V26.584H173.636V48ZM184.52 29.7627C183.377 29.7627 182.474 30.4316 181.81 31.7695C181.155 33.1074 180.828 34.9678 180.828 37.3506C180.828 42.3115 182.122 44.792 184.71 44.792C185.843 44.792 187.029 44.4307 188.27 43.708V47.2529C187.225 47.9463 185.887 48.293 184.256 48.293C181.844 48.293 179.988 47.3359 178.689 45.4219C177.4 43.498 176.756 40.7979 176.756 37.3213C176.756 33.8447 177.42 31.1348 178.748 29.1914C180.086 27.248 181.941 26.2764 184.314 26.2764C185.096 26.2764 185.843 26.3838 186.556 26.5986C187.278 26.8135 188.05 27.1895 188.87 27.7266L187.552 30.9639C187.112 30.6611 186.644 30.3877 186.146 30.1436C185.647 29.8896 185.105 29.7627 184.52 29.7627ZM204.529 48H200.545V38.6104H195.286V48H191.302V26.584H195.286V35.0947H200.545V26.584H204.529V48ZM223.06 37.2627C223.06 40.8076 222.396 43.5322 221.067 45.4365C219.739 47.3408 217.84 48.293 215.369 48.293C212.889 48.293 210.984 47.3457 209.656 45.4512C208.328 43.5469 207.664 40.8076 207.664 37.2334C207.664 33.6885 208.328 30.9736 209.656 29.0889C210.984 27.1943 212.898 26.2471 215.398 26.2471C217.869 26.2471 219.764 27.1992 221.082 29.1035C222.4 30.998 223.06 33.7178 223.06 37.2627ZM211.736 37.2627C211.736 39.7041 212.044 41.5645 212.659 42.8438C213.274 44.123 214.178 44.7627 215.369 44.7627C217.771 44.7627 218.973 42.2627 218.973 37.2627C218.973 32.2627 217.781 29.7627 215.398 29.7627C214.188 29.7627 213.274 30.4023 212.659 31.6816C212.044 32.9512 211.736 34.8115 211.736 37.2627Z" fill="black"/>
<g clip-path="url(#clip0)">
<path d="M30.7354 36.4463C29.0241 36.4463 27.6354 35.0577 27.6354 33.3464C27.6354 31.6351 29.0241 30.2465 30.7354 30.2465C32.4467 30.2465 33.8353 31.6351 33.8353 33.3464C33.8353 35.0577 32.4467 36.4463 30.7354 36.4463Z" fill="black"/>
<path d="M41.1696 36.4463C39.4582 36.4463 38.0696 35.0577 38.0696 33.3464C38.0696 31.6351 39.4582 30.2465 41.1696 30.2465C42.8809 30.2465 44.2695 31.6351 44.2695 33.3464C44.2695 35.0577 42.8809 36.4463 41.1696 36.4463Z" fill="black"/>
<path d="M46.2449 24.3497L44.1619 18.0911C43.8784 17.2501 43.096 16.683 42.2159 16.683H27.1269L26.4717 14.0622C26.2468 13.1527 25.4254 12.5073 24.4768 12.5073H20.3012C19.1668 12.5073 18.2476 13.4265 18.2476 14.5609C18.2476 15.6953 19.1668 16.6145 20.3012 16.6145H22.8731L23.5283 19.2353L25.6112 27.5768C25.8459 28.496 26.6673 29.1316 27.6061 29.1316C27.6941 29.1316 27.7723 29.1218 27.8604 29.1121L44.5531 27.0291C45.1594 26.9509 45.707 26.6086 46.0395 26.0903C46.3622 25.5721 46.4404 24.9364 46.2449 24.3497V24.3497ZM29.161 24.8289L28.1537 20.7999H40.7295L41.5607 23.274L29.161 24.8289Z" fill="black"/>
<path d="M26.3055 40.5633C25.7677 40.4459 25.3276 40.1232 25.044 39.6929C24.78 39.292 25.2103 40.6806 19.7731 20.7706C16.5558 20.4968 14.0329 17.7684 14.0818 14.4729C14.1307 11.06 16.9861 8.34148 20.399 8.34148H31.195C32.0751 8.34148 32.789 7.62762 32.789 6.74751C32.789 3.03149 29.777 0 26.0415 0H10.3951C6.66928 0 3.64757 3.02171 3.64757 6.74751V43.2525C3.64757 46.9783 6.66928 50 10.3951 50H26.0415C29.7673 50 32.789 46.9783 32.789 43.2525V42.2159C32.789 41.3358 32.0751 40.6219 31.1852 40.6219C26.1393 40.6219 26.5695 40.6219 26.3055 40.5633V40.5633ZM18.2183 45.8635C17.0644 45.8635 16.1353 44.9247 16.1353 43.7806C16.1353 42.6364 17.0741 41.6976 18.2183 41.6976C19.3624 41.6976 20.3012 42.6364 20.3012 43.7806C20.311 44.9247 19.3722 45.8635 18.2183 45.8635Z" fill="black"/>
</g>
<defs>
<clipPath id="clip0">
<rect width="50" height="50" fill="white"/>
</clipPath>
</defs>
</svg>
